<svg xmlns="http://www.w3.org/2000/svg" viewBox="0 0 305.54998779296875 51.79999923706055" data-asc="0.851" width="305.54998779296875" height="51.79999923706055"><defs/><g><g fill="#ffffff"><g transform="translate(0, 0)"><path d="M60.05 51.80Q57.30 51.80 54.98 50.55Q52.65 49.30 50.85 47.17Q49.05 45.05 47.85 42.40Q46.85 40.15 46.23 37.85Q45.60 35.55 45.30 33.55Q45.00 31.55 45.00 30.25Q45.00 28.65 45.35 28.45Q46.30 28.55 48.53 27.65Q50.75 26.75 53.83 25.00Q56.90 23.25 60.48 20.77Q64.05 18.30 67.67 15.20Q71.30 12.10 74.65 8.50Q78 4.90 80.55 0.95Q81.15-0.00 81.70-0.00Q82.15-0.00 82.15 0.55Q82.15 1.00 81.80 1.55Q79.40 5.55 76.10 9.37Q72.80 13.20 69.05 16.55Q65.30 19.90 61.53 22.60Q57.75 25.30 54.33 27.10Q50.90 28.90 48.30 29.55Q48.15 29.45 48.15 30.05Q48.15 30.90 48.50 32.77Q48.85 34.65 49.58 37.02Q50.30 39.40 51.35 41.85Q52.95 45.60 55.18 47.63Q57.40 49.65 60.30 49.65Q62.25 49.65 64.30 49.07Q66.35 48.50 68.05 47.32Q69.75 46.15 70.70 44.35Q71 43.65 71.40 43.65Q71.60 43.65 71.60 43.95Q71.60 44.30 71.35 44.75Q70.45 46.60 68.60 48.20Q66.75 49.80 64.47 50.80Q62.20 51.80 60.05 51.80M17.75 51.15Q14.35 51.15 11.18 50.22Q8 49.30 5.47 47.50Q2.95 45.70 1.48 43.10Q0 40.50 0 37.20Q0 36.30 0.15 35.32Q0.30 34.35 0.55 33.30Q1.05 31.50 2.18 30.17Q3.30 28.85 4.50 28.07Q5.70 27.30 6.30 27.25L6.45 27.25Q6.95 27.25 6.95 27.55Q6.95 27.80 6.70 27.95Q6.25 28.15 5.17 29.07Q4.10 30.00 3.05 31.62Q2 33.25 1.70 35.50Q1.55 36.45 1.55 37.30Q1.55 40.30 2.85 42.42Q4.15 44.55 6.25 45.90Q8.35 47.25 10.85 47.88Q13.35 48.50 15.75 48.50Q16.70 48.50 17.60 48.42Q18.50 48.35 19.30 48.15Q24.70 46.95 28.68 44.30Q32.65 41.65 35.55 38.20Q38.45 34.75 40.48 31.10Q42.50 27.45 43.90 24.25Q44.20 23.50 44.93 21.90Q45.65 20.30 46.58 18.25Q47.50 16.20 48.48 14.10Q49.45 12.00 50.25 10.25Q51.05 8.50 51.55 7.55Q48.20 7.95 44.33 8.27Q40.45 8.60 36.95 9.60Q33.05 10.70 30.58 12.80Q28.10 14.90 26.93 17.40Q25.75 19.90 25.75 22.15Q25.75 24.60 27.00 26.25Q28.25 27.90 30.45 27.90Q31.55 27.90 32.80 27.45Q34.25 26.95 35.20 25.67Q36.15 24.40 36.63 22.77Q37.10 21.15 37.10 19.65Q37.10 18.85 36.95 18.10L36.95 18.00Q36.95 17.80 37.15 17.80Q37.55 17.80 37.85 18.40Q38.10 18.90 38.18 19.47Q38.25 20.05 38.25 20.60Q38.25 22.20 37.55 23.77Q36.85 25.35 35.70 26.60Q34.55 27.85 33.10 28.40Q32.30 28.70 31.55 28.82Q30.80 28.95 30.10 28.95Q27.95 28.95 26.28 27.82Q24.60 26.70 23.68 24.85Q22.75 23.00 22.75 20.85Q22.75 18.40 24.10 15.87Q25.45 13.35 28.45 11.27Q31.45 9.20 36.35 8.10Q40.45 7.20 44.70 6.92Q48.95 6.65 52.20 6.35Q52.40 6.05 53.03 5.20Q53.65 4.35 54.48 3.47Q55.30 2.60 56.10 2.35Q56.65 2.20 57.05 2.20Q57.95 2.20 58.48 2.70Q59.00 3.20 59.00 3.90Q59.00 4.90 57.63 6.02Q56.25 7.15 53.00 7.50Q51.40 10.45 50.05 14.02Q48.70 17.60 47.38 21.47Q46.05 25.35 44.48 29.22Q42.90 33.10 40.90 36.67Q38.90 40.25 36.18 43.20Q33.45 46.15 29.78 48.15Q26.10 50.15 21.25 50.90Q20.40 51 19.50 51.07Q18.60 51.15 17.75 51.15M53.95 6.25Q55.50 6.00 56.15 5.65Q56.85 5.25 57.18 4.85Q57.50 4.45 57.50 4.15Q57.50 3.65 57.00 3.65Q56.55 3.65 55.90 4.15Q55.40 4.50 54.85 5.15Q54.30 5.80 53.95 6.25ZM71.45 42.70Q70.90 42.75 70.20 42.45Q69.50 42.15 68.97 41.35Q68.45 40.55 68.45 39.10Q68.45 37.90 68.90 36.20Q68.30 37.15 67.35 38.52Q66.40 39.90 65.30 40.95Q64.35 41.85 63.50 42.25Q62.65 42.65 61.95 42.65Q60.65 42.65 59.85 41.47Q59.05 40.30 59.05 38.40Q59.05 36.40 60.05 33.85Q61.05 31.30 63.30 28.55Q64.75 26.80 66.83 25.72Q68.90 24.65 70.90 24.65Q72.05 24.65 73.10 25.02Q74.15 25.40 74.95 26.25Q75.30 26.60 75.30 27.05Q75.30 27.35 75.05 27.55Q74.80 27.75 74.40 27.65Q73.85 25.90 72.05 25.90Q71.20 25.90 70.10 26.45Q68.40 27.35 66.58 29.40Q64.75 31.45 63.40 33.65Q63.20 33.95 62.78 34.80Q62.35 35.65 61.95 36.70Q61.55 37.75 61.40 38.75Q61.35 39.05 61.35 39.17Q61.35 39.30 61.35 39.55Q61.35 41.20 62.60 41.20Q64.10 41.20 66 39Q67.30 37.40 68.35 35.65Q69.40 33.90 70.50 31.90Q71.25 30.55 71.90 29.65Q72.55 28.75 73.75 28.75Q74.30 28.75 74.85 28.90Q75.40 29.05 76 28.95Q75.60 29.35 74.92 30.45Q74.25 31.55 73.50 32.95Q72.75 34.35 72.15 35.80Q71.55 37.25 71.30 38.30Q71.25 38.60 71.17 39.15Q71.10 39.70 71.10 39.95Q71.10 41.35 71.90 41.35Q72.70 41.35 73.63 40.40Q74.55 39.45 75.45 38.05Q76.35 36.65 77.10 35.22Q77.85 33.80 78.30 32.90Q78.50 32.40 78.90 32.40Q79.15 32.40 79.15 32.75Q79.15 32.90 79 33.30Q78.40 34.55 77.55 36.13Q76.70 37.70 75.70 39.17Q74.70 40.65 73.63 41.63Q72.55 42.60 71.45 42.70ZM89.30 42.55Q87.95 42.55 87.05 41.20Q86.80 40.80 86.60 40.15Q86.40 39.50 86.40 38.70Q86.40 38.25 86.45 37.77Q86.50 37.30 86.65 36.80Q85.95 37.90 85.03 39.22Q84.10 40.55 82.92 41.52Q81.75 42.50 80.30 42.50Q79.80 42.50 79.25 42.35Q77.90 41.95 77.33 40.95Q76.75 39.95 76.75 38.55Q76.75 37 77.38 35.15Q78 33.30 78.98 31.55Q79.95 29.80 81 28.55Q82.50 26.80 84.45 25.75Q86.40 24.70 88.40 24.70Q90.20 24.70 91.80 25.65Q92.55 24.25 93.40 22.52Q94.25 20.80 95.10 19.10Q95.95 17.40 96.60 15.97Q97.25 14.55 97.60 13.80Q98.35 12.05 99.03 11.57Q99.70 11.10 100.65 11.10Q101.20 11.10 101.88 11.22Q102.55 11.35 103.20 11.30Q102.90 11.60 101.98 13.02Q101.05 14.45 99.80 16.65Q98.55 18.85 97.13 21.47Q95.70 24.10 94.33 26.77Q92.95 29.45 91.78 31.82Q90.60 34.20 89.90 35.90Q89.70 36.30 89.33 37.52Q88.95 38.75 88.95 39.65Q88.95 40.30 89.25 40.77Q89.55 41.25 90.25 41.25Q91.20 41.25 92.18 40.27Q93.15 39.30 94.05 37.88Q94.95 36.45 95.65 35.07Q96.35 33.70 96.70 32.90Q96.95 32.35 97.30 32.35Q97.60 32.35 97.60 32.80Q97.60 32.85 97.60 32.97Q97.60 33.10 97.50 33.25Q97.05 34.30 96.28 35.85Q95.50 37.40 94.45 38.95Q93.40 40.50 92.10 41.52Q90.80 42.55 89.30 42.55M80.65 41.05Q81.35 41.05 82.40 40.27Q83.45 39.50 84.65 37.80Q86.05 35.80 87.85 32.80Q89.65 29.80 91.40 26.45Q90.75 25.85 89.90 25.85Q88.50 25.85 86.78 27.15Q85.05 28.45 83.42 30.45Q81.80 32.45 80.70 34.50Q79.95 35.90 79.63 37.05Q79.30 38.20 79.30 39.05Q79.30 41.05 80.65 41.05ZM100.25 42.75Q98.40 42.75 96.93 41.55Q95.45 40.35 95.45 37.90Q95.45 35.65 96.55 33.07Q97.65 30.50 99.35 28.55Q100.80 26.85 102.60 25.75Q104.40 24.65 106 24.65Q107.10 24.65 107.90 25.25Q108.75 25.90 108.75 27.10Q108.75 28.35 107.80 29.85Q106.85 31.35 105.10 32.65Q104.35 33.20 103.20 33.70Q102.05 34.20 100.90 34.52Q99.75 34.85 99 34.85Q98.75 35.45 98.53 36.45Q98.30 37.45 98.30 38.50Q98.30 39.75 98.80 40.75Q99.30 41.75 100.65 41.75Q102.30 41.75 103.65 40.80Q105 39.85 106.05 38.42Q107.10 37 107.83 35.55Q108.55 34.10 109 33.10Q109.30 32.40 109.80 32.40Q110.05 32.40 110.05 32.65Q110.05 32.85 109.90 33.15Q109.20 34.65 108.40 36.32Q107.60 38 106.50 39.47Q105.40 40.95 103.88 41.85Q102.35 42.75 100.25 42.75M99.35 33.95Q100.05 33.95 101.70 33.42Q103.35 32.90 104.70 31.75Q106 30.60 106.70 29.22Q107.40 27.85 107.40 26.90Q107.40 25.80 106.60 25.80Q106 25.80 104.95 26.60Q103.90 27.40 102.35 29.30Q101.40 30.50 100.55 31.90Q99.70 33.30 99.35 33.95ZM112.65 42.75Q110.80 42.75 109.33 41.55Q107.85 40.35 107.85 37.90Q107.85 35.65 108.95 33.07Q110.05 30.50 111.75 28.55Q113.20 26.85 115.00 25.75Q116.80 24.65 118.40 24.65Q119.50 24.65 120.30 25.25Q121.15 25.90 121.15 27.10Q121.15 28.35 120.20 29.85Q119.25 31.35 117.50 32.65Q116.75 33.20 115.60 33.70Q114.45 34.20 113.30 34.52Q112.15 34.85 111.40 34.85Q111.15 35.45 110.93 36.45Q110.70 37.45 110.70 38.50Q110.70 39.75 111.20 40.75Q111.70 41.75 113.05 41.75Q114.70 41.75 116.05 40.80Q117.40 39.85 118.45 38.42Q119.50 37 120.23 35.55Q120.95 34.10 121.40 33.10Q121.70 32.40 122.20 32.40Q122.45 32.40 122.45 32.65Q122.45 32.85 122.30 33.15Q121.60 34.65 120.80 36.32Q120.00 38 118.90 39.47Q117.80 40.95 116.28 41.85Q114.75 42.75 112.65 42.75M111.75 33.95Q112.45 33.95 114.10 33.42Q115.75 32.90 117.10 31.75Q118.40 30.60 119.10 29.22Q119.80 27.85 119.80 26.90Q119.80 25.80 119.00 25.80Q118.40 25.80 117.35 26.60Q116.30 27.40 114.75 29.30Q113.80 30.50 112.95 31.90Q112.10 33.30 111.75 33.95ZM116.75 42.95Q118.55 39.30 120.23 35.72Q121.90 32.15 123.65 28.90Q124.65 27.10 125.33 26.37Q126.00 25.65 127.15 25.65Q127.55 25.65 128.00 25.77Q128.45 25.90 128.90 25.90Q129.20 25.90 129.35 25.85Q128.65 26.25 127.55 27.82Q126.45 29.40 125.30 31.45Q124.15 33.50 123.25 35.30Q124.20 34.15 125.23 33Q126.25 31.85 127.50 30.80Q128.70 29.75 130.38 28.62Q132.05 27.50 133.65 26.75Q135.25 26.00 136.20 26.00Q136.55 26.00 136.70 26.05Q136.70 26.05 136.15 27.02Q135.60 28.00 134.78 29.57Q133.95 31.15 133.10 32.92Q132.25 34.70 131.58 36.32Q130.90 37.95 130.70 39.05Q130.55 39.70 130.55 40.25Q130.55 41.05 130.85 41.30Q131.15 41.55 131.50 41.55Q132.45 41.55 133.50 40.52Q134.55 39.50 135.53 38Q136.50 36.50 137.28 35.07Q138.05 33.65 138.40 32.90Q138.60 32.50 138.70 32.42Q138.80 32.35 139.00 32.35Q139.30 32.35 139.30 32.75Q139.30 33 139.15 33.30Q138.55 34.45 137.73 36.05Q136.90 37.65 135.85 39.17Q134.80 40.70 133.55 41.72Q132.30 42.75 130.85 42.75Q129.85 42.75 128.78 42.05Q127.70 41.35 127.70 39.45Q127.70 38.90 127.80 38.27Q127.90 37.65 128.15 36.90Q128.55 35.90 129.10 34.75Q129.65 33.60 130.90 31.60Q131.25 31.05 131.33 30.75Q131.40 30.45 131.40 30.25Q131.40 29.65 130.85 29.65Q130.40 29.65 129.53 30.15Q128.65 30.65 127.35 31.90Q126.10 33.10 124.38 35.30Q122.65 37.50 120.40 41.80Q120.05 42.45 119.63 42.50Q119.20 42.55 118.45 42.60Q117.95 42.65 117.50 42.67Q117.05 42.70 116.75 42.95ZM161.65 44.80Q157.40 44.80 154.60 43.47Q151.80 42.15 150.43 39.97Q149.05 37.80 149.05 35.35Q149.05 32.60 150.70 29.87Q152.35 27.15 155.63 25.17Q158.90 23.20 163.65 22.70Q162.95 21.75 162.60 20.52Q162.25 19.30 162.25 18.20Q162.30 15.55 163.75 13.52Q165.20 11.50 167.48 10.10Q169.75 8.70 172.35 7.97Q174.95 7.25 177.25 7.25Q178.65 7.25 180.10 7.62Q181.55 8.00 182.55 8.95Q183.55 9.90 183.55 11.65Q183.55 13.10 182.65 14.25Q181.75 15.40 180.45 15.40Q179.50 15.40 178.80 14.70Q178.10 14.00 178.10 13.10Q178.10 12.05 178.78 11.37Q179.45 10.70 180.45 10.70Q180.90 10.70 181.48 11.00Q182.05 11.30 182.20 11.60Q182.25 11.40 182.25 11.05Q182.25 9.70 181.15 9.15Q180.05 8.60 178.80 8.60Q176.80 8.60 174.15 9.57Q171.50 10.55 169.00 12.75Q168.10 13.55 167.15 14.85Q166.20 16.15 165.55 17.62Q164.90 19.10 164.90 20.60Q164.90 21.75 165.30 22.60Q166.05 22.60 167.03 22.52Q168.00 22.45 169.05 22.45Q170.35 22.45 171.10 23.00Q171.85 23.55 171.85 24.25Q171.85 24.75 171.25 25.20Q170.65 25.65 169.35 25.65Q167.70 25.65 166.38 24.92Q165.05 24.20 164.30 23.45Q161.00 23.90 158.70 25.90Q156.40 27.90 155.20 30.62Q154.00 33.35 154.00 36.05Q154.00 38.20 154.83 40.05Q155.65 41.90 157.35 43.02Q159.05 44.15 161.65 44.15Q164.35 44.15 166.58 43.17Q168.80 42.20 170.40 40.65Q172.00 39.10 172.88 37.38Q173.75 35.65 173.75 34.15Q173.75 32.85 172.83 31.97Q171.90 31.10 170.40 30.67Q168.90 30.25 167.20 30.25Q165.45 30.25 163.73 30.72Q162.00 31.20 160.80 32.17Q159.60 33.15 159.35 34.65Q159.35 34.75 159.33 34.88Q159.30 35 159.30 35.10Q159.30 36.20 160.13 37.27Q160.95 38.35 162.70 39.25Q163.15 39.45 163.15 40Q163.15 40.55 162.65 40.30Q159.90 38.85 158.63 37.13Q157.35 35.40 157.35 33.85Q157.35 31.60 159.78 29.97Q162.20 28.35 166.70 28.35L175.55 28.35Q176.35 28.35 177.93 28.00Q179.50 27.65 181.15 26.97Q182.80 26.30 183.98 25.37Q185.15 24.45 185.15 23.25Q185.15 22.60 184.70 21.85Q184.60 21.70 184.60 21.50Q184.60 21.20 184.85 21.20Q185.05 21.20 185.20 21.45Q185.95 22.55 185.95 23.70Q185.95 25.05 184.98 26.20Q184.00 27.35 182.35 28.22Q180.70 29.10 178.68 29.55Q176.65 30.00 174.55 29.95Q175.50 30.75 175.95 31.75Q176.40 32.75 176.40 33.85Q176.40 35.70 175.30 37.63Q174.20 39.55 172.20 41.17Q170.20 42.80 167.53 43.80Q164.85 44.80 161.65 44.80M169.35 24.80Q171.00 24.80 171.00 24.15Q171.00 23.90 170.58 23.62Q170.15 23.35 169.45 23.30Q169.15 23.25 168.45 23.25Q167.75 23.25 166.98 23.25Q166.20 23.25 165.70 23.25Q166.95 24.80 169.35 24.80ZM251.70 51.80Q248.95 51.80 246.63 50.55Q244.30 49.30 242.50 47.17Q240.70 45.05 239.50 42.40Q238.50 40.15 237.88 37.85Q237.25 35.55 236.95 33.55Q236.65 31.55 236.65 30.25Q236.65 28.65 237.00 28.45Q237.95 28.55 240.18 27.65Q242.40 26.75 245.48 25.00Q248.55 23.25 252.13 20.77Q255.70 18.30 259.33 15.20Q262.95 12.10 266.30 8.50Q269.65 4.90 272.20 0.95Q272.80-0.00 273.35-0.00Q273.80-0.00 273.80 0.55Q273.80 1.00 273.45 1.55Q271.05 5.55 267.75 9.37Q264.45 13.20 260.70 16.55Q256.95 19.90 253.18 22.60Q249.40 25.30 245.98 27.10Q242.55 28.90 239.95 29.55Q239.80 29.45 239.80 30.05Q239.80 30.90 240.15 32.77Q240.50 34.65 241.23 37.02Q241.95 39.40 243.00 41.85Q244.60 45.60 246.83 47.63Q249.05 49.65 251.95 49.65Q253.90 49.65 255.95 49.07Q258 48.50 259.70 47.32Q261.40 46.15 262.35 44.35Q262.65 43.65 263.05 43.65Q263.25 43.65 263.25 43.95Q263.25 44.30 263 44.75Q262.10 46.60 260.25 48.20Q258.40 49.80 256.13 50.80Q253.85 51.80 251.70 51.80M209.40 51.15Q206.00 51.15 202.83 50.22Q199.65 49.30 197.13 47.50Q194.60 45.70 193.13 43.10Q191.65 40.50 191.65 37.20Q191.65 36.30 191.80 35.32Q191.95 34.35 192.20 33.30Q192.70 31.50 193.83 30.17Q194.95 28.85 196.15 28.07Q197.35 27.30 197.95 27.25L198.10 27.25Q198.60 27.25 198.60 27.55Q198.60 27.80 198.35 27.95Q197.90 28.15 196.83 29.07Q195.75 30.00 194.70 31.62Q193.65 33.25 193.35 35.50Q193.20 36.45 193.20 37.30Q193.20 40.30 194.50 42.42Q195.80 44.55 197.90 45.90Q200.00 47.25 202.50 47.88Q205.00 48.50 207.40 48.50Q208.35 48.50 209.25 48.42Q210.15 48.35 210.95 48.15Q216.35 46.95 220.33 44.30Q224.30 41.65 227.20 38.20Q230.10 34.75 232.13 31.10Q234.15 27.45 235.55 24.25Q235.85 23.50 236.58 21.90Q237.30 20.30 238.23 18.25Q239.15 16.20 240.13 14.10Q241.10 12.00 241.90 10.25Q242.70 8.50 243.20 7.55Q239.85 7.95 235.98 8.27Q232.10 8.60 228.60 9.60Q224.70 10.70 222.23 12.80Q219.75 14.90 218.58 17.40Q217.40 19.90 217.40 22.15Q217.40 24.60 218.65 26.25Q219.90 27.90 222.10 27.90Q223.20 27.90 224.45 27.45Q225.90 26.95 226.85 25.67Q227.80 24.40 228.28 22.77Q228.75 21.15 228.75 19.65Q228.75 18.85 228.60 18.10L228.60 18.00Q228.60 17.80 228.80 17.80Q229.20 17.80 229.50 18.40Q229.75 18.90 229.83 19.47Q229.90 20.05 229.90 20.60Q229.90 22.20 229.20 23.77Q228.50 25.35 227.35 26.60Q226.20 27.85 224.75 28.40Q223.95 28.70 223.20 28.82Q222.45 28.95 221.75 28.95Q219.60 28.95 217.93 27.82Q216.25 26.70 215.33 24.85Q214.40 23.00 214.40 20.85Q214.40 18.40 215.75 15.87Q217.10 13.35 220.10 11.27Q223.10 9.20 228.00 8.10Q232.10 7.20 236.35 6.92Q240.60 6.65 243.85 6.35Q244.05 6.05 244.68 5.20Q245.30 4.35 246.13 3.47Q246.95 2.60 247.75 2.35Q248.30 2.20 248.70 2.20Q249.60 2.20 250.13 2.70Q250.65 3.20 250.65 3.90Q250.65 4.90 249.28 6.02Q247.90 7.15 244.65 7.50Q243.05 10.45 241.70 14.02Q240.35 17.60 239.03 21.47Q237.70 25.35 236.13 29.22Q234.55 33.10 232.55 36.67Q230.55 40.25 227.83 43.20Q225.10 46.15 221.43 48.15Q217.75 50.15 212.90 50.90Q212.05 51 211.15 51.07Q210.25 51.15 209.40 51.15M245.60 6.25Q247.15 6.00 247.80 5.65Q248.50 5.25 248.83 4.85Q249.15 4.45 249.15 4.15Q249.15 3.65 248.65 3.65Q248.20 3.65 247.55 4.15Q247.05 4.50 246.50 5.15Q245.95 5.80 245.60 6.25ZM253.90 42.55Q253.35 42.55 252.58 42.30Q251.80 42.05 251.23 41.38Q250.65 40.70 250.65 39.35Q250.65 38.05 251.28 36.82Q251.90 35.60 252.45 34.45Q252.30 34.45 252.13 34.35Q251.95 34.25 251.95 34.05Q251.95 33.85 252.05 33.65Q252.25 33.25 252.50 32.80Q252.75 32.35 252.95 31.85Q253.70 30.30 254.45 28.87Q255.20 27.45 255.75 26.35Q256.30 25.25 257.65 25.25L260.75 25.25Q259.90 25.90 259.23 26.67Q258.55 27.45 257.55 29.50Q257.55 29.50 257.20 30.20Q256.85 30.90 256.33 31.97Q255.80 33.05 255.28 34.15Q254.75 35.25 254.40 36Q253.75 37.40 253.55 38.22Q253.35 39.05 253.35 39.75Q253.35 41.40 254.45 41.40Q255.65 41.40 257.35 39.45Q258.75 37.80 260.10 35.50Q261.45 33.20 262.68 30.75Q263.90 28.30 264.85 26.35Q265.40 25.25 266.80 25.25L269.55 25.25Q268.80 25.85 268.30 26.37Q267.80 26.90 267.33 27.77Q266.85 28.65 266.05 30.25Q265.40 31.60 264.68 33.13Q263.95 34.65 263.40 36Q262.85 37.35 262.70 38.20Q262.65 38.70 262.60 38.95Q262.55 39.20 262.55 39.50Q262.55 40.45 262.88 40.85Q263.20 41.25 263.65 41.25Q264.85 41.25 266.08 39.90Q267.30 38.55 268.43 36.60Q269.55 34.65 270.35 32.90Q270.65 32.35 270.90 32.35Q271.20 32.35 271.20 32.70Q271.20 32.95 271 33.30Q270.45 34.50 269.65 36.05Q268.85 37.60 267.85 39.10Q266.85 40.60 265.65 41.57Q264.45 42.55 263.05 42.55Q261.80 42.55 261 41.63Q260.20 40.70 260.20 39Q260.20 37.65 260.70 36.10Q259.85 37.60 258.75 39.10Q257.65 40.60 256.40 41.57Q255.15 42.55 253.90 42.55ZM265.50 42.95Q267.30 39.30 268.98 35.72Q270.65 32.15 272.40 28.90Q273.40 27.10 274.08 26.37Q274.75 25.65 275.90 25.65Q276.30 25.65 276.75 25.77Q277.20 25.90 277.65 25.90Q277.95 25.90 278.10 25.85Q277.40 26.25 276.30 27.82Q275.20 29.40 274.05 31.45Q272.90 33.50 272.00 35.30Q272.95 34.15 273.98 33Q275.00 31.85 276.25 30.80Q277.45 29.75 279.13 28.62Q280.80 27.50 282.40 26.75Q284.00 26.00 284.95 26.00Q285.30 26.00 285.45 26.05Q285.45 26.05 284.90 27.02Q284.35 28.00 283.53 29.57Q282.70 31.15 281.85 32.92Q281.00 34.70 280.33 36.32Q279.65 37.95 279.45 39.05Q279.30 39.70 279.30 40.25Q279.30 41.05 279.60 41.30Q279.90 41.55 280.25 41.55Q281.20 41.55 282.25 40.52Q283.30 39.50 284.28 38Q285.25 36.50 286.03 35.07Q286.80 33.65 287.15 32.90Q287.35 32.50 287.45 32.42Q287.55 32.35 287.75 32.35Q288.05 32.35 288.05 32.75Q288.05 33 287.90 33.30Q287.30 34.45 286.48 36.05Q285.65 37.65 284.60 39.17Q283.55 40.70 282.30 41.72Q281.05 42.75 279.60 42.75Q278.60 42.75 277.53 42.05Q276.45 41.35 276.45 39.45Q276.45 38.90 276.55 38.27Q276.65 37.65 276.90 36.90Q277.30 35.90 277.85 34.75Q278.40 33.60 279.65 31.60Q280.00 31.05 280.08 30.75Q280.15 30.45 280.15 30.25Q280.15 29.65 279.60 29.65Q279.15 29.65 278.28 30.15Q277.40 30.65 276.10 31.90Q274.85 33.10 273.13 35.30Q271.40 37.50 269.15 41.80Q268.80 42.45 268.38 42.50Q267.95 42.55 267.20 42.60Q266.70 42.65 266.25 42.67Q265.80 42.70 265.50 42.95ZM297.85 42.70Q297.30 42.75 296.60 42.45Q295.90 42.15 295.38 41.35Q294.85 40.55 294.85 39.10Q294.85 37.90 295.30 36.20Q294.70 37.15 293.75 38.52Q292.80 39.90 291.70 40.95Q290.75 41.85 289.90 42.25Q289.05 42.65 288.35 42.65Q287.05 42.65 286.25 41.47Q285.45 40.30 285.45 38.40Q285.45 36.40 286.45 33.85Q287.45 31.30 289.70 28.55Q291.15 26.80 293.23 25.72Q295.30 24.65 297.30 24.65Q298.45 24.65 299.50 25.02Q300.55 25.40 301.35 26.25Q301.70 26.60 301.70 27.05Q301.70 27.35 301.45 27.55Q301.20 27.75 300.80 27.65Q300.25 25.90 298.45 25.90Q297.60 25.90 296.50 26.45Q294.80 27.35 292.98 29.40Q291.15 31.45 289.80 33.65Q289.60 33.95 289.18 34.80Q288.75 35.65 288.35 36.70Q287.95 37.75 287.80 38.75Q287.75 39.05 287.75 39.17Q287.75 39.30 287.75 39.55Q287.75 41.20 289.00 41.20Q290.50 41.20 292.40 39Q293.70 37.40 294.75 35.65Q295.80 33.90 296.90 31.90Q297.65 30.55 298.30 29.65Q298.95 28.75 300.15 28.75Q300.70 28.75 301.25 28.90Q301.80 29.05 302.40 28.95Q302.00 29.35 301.33 30.45Q300.65 31.55 299.90 32.95Q299.15 34.35 298.55 35.80Q297.95 37.25 297.70 38.30Q297.65 38.60 297.58 39.15Q297.50 39.70 297.50 39.95Q297.50 41.35 298.30 41.35Q299.10 41.35 300.03 40.40Q300.95 39.45 301.85 38.05Q302.75 36.65 303.50 35.22Q304.25 33.80 304.70 32.90Q304.90 32.40 305.30 32.40Q305.55 32.40 305.55 32.75Q305.55 32.90 305.40 33.30Q304.80 34.55 303.95 36.13Q303.10 37.70 302.10 39.17Q301.10 40.65 300.03 41.63Q298.95 42.60 297.85 42.70Z"/></g></g></g></svg>